<?xml version="1.0" encoding="utf-8"?>
<!-- Generator: Adobe Illustrator 19.0.0, SVG Export Plug-In . SVG Version: 6.00 Build 0)  -->
<svg version="1.1" id="Capa_1" xmlns="http://www.w3.org/2000/svg" xmlns:xlink="http://www.w3.org/1999/xlink" x="0px" y="0px"
	 viewBox="0 0 100 32.8" style="enable-background:new 0 0 100 32.8;" xml:space="preserve">
<style type="text/css">
	.st0{fill:#3880FF;}
	.st1{fill:#FFFFFF;}
</style>
<rect id="XMLID_2_" x="55.8" y="4.6" class="st0" width="36.9" height="24.2"/>
<g id="XMLID_81_">
	<path id="XMLID_82_" class="st0" d="M7.3,21.1h1.4v-8.8H7.3V11h5.3c0.7,0,1.4,0,1.9,0.3c1.2,0.5,1.9,1.7,1.9,3.2
		c0,1.6-0.8,2.9-2.1,3.3c-0.5,0.2-1.1,0.2-1.7,0.2h-2.3v3h1.4v1.3H7.3V21.1z M12.4,16.7c0.5,0,0.9-0.1,1.3-0.2c0.7-0.3,1.1-1,1.1-2
		c0-0.9-0.4-1.6-1-1.9c-0.4-0.2-0.8-0.3-1.4-0.3h-2.1v4.4H12.4z"/>
	<path id="XMLID_85_" class="st0" d="M17.4,21.1h1.3v-8.9h-1.4V11h2.9v4.2c0,0.4,0,0.7,0,0.7h0c0.4-0.8,1.4-1.9,3-1.9
		c1.9,0,2.8,1,2.8,3.1v4h1.3v1.2h-2.8v-4.8c0-1.1-0.2-2-1.5-2c-1.6,0-2.7,1.3-2.7,3.1v2.6h1.3v1.2h-4.1V21.1z"/>
	<path id="XMLID_87_" class="st0" d="M32.7,14c2.4,0,4.4,1.8,4.4,4.2c0,2.5-2,4.3-4.4,4.3c-2.4,0-4.4-1.8-4.4-4.3
		C28.3,15.8,30.3,14,32.7,14z M32.7,21.2c1.5,0,2.8-1.2,2.8-2.9c0-1.7-1.3-2.9-2.8-2.9c-1.5,0-2.8,1.2-2.8,2.9
		C29.9,19.9,31.1,21.2,32.7,21.2z"/>
	<path id="XMLID_90_" class="st0" d="M39.3,15.4H38v-1.2h1.4V12h1.5v2.2h1.9v1.2h-1.9v3.8c0,1.7,1.1,1.9,1.7,1.9c0.2,0,0.4,0,0.4,0
		v1.3c0,0-0.2,0-0.6,0c-1,0-3.1-0.3-3.1-3V15.4z"/>
	<path id="XMLID_92_" class="st0" d="M48.5,14c2.4,0,4.4,1.8,4.4,4.2c0,2.5-2,4.3-4.4,4.3c-2.4,0-4.4-1.8-4.4-4.3
		C44.1,15.8,46,14,48.5,14z M48.5,21.2c1.5,0,2.8-1.2,2.8-2.9c0-1.7-1.3-2.9-2.8-2.9c-1.5,0-2.8,1.2-2.8,2.9
		C45.7,19.9,46.9,21.2,48.5,21.2z"/>
	<path id="XMLID_95_" class="st1" d="M58.1,21.1h1.4l0.7-8.8h-1.4V11H62l2.9,6.9c0.2,0.5,0.3,0.8,0.3,0.8h0c0,0,0.1-0.4,0.3-0.8
		l2.9-6.9h3.2v1.2h-1.4l0.7,8.8h1.4v1.3h-4.4v-1.3h1.4l-0.5-6.8c0-0.4,0-0.9,0-0.9h0c0,0-0.1,0.5-0.3,0.9l-2.6,5.9h-1.4l-2.6-5.9
		c-0.1-0.3-0.3-0.9-0.3-0.9h0c0,0,0.1,0.6,0,0.9l-0.5,6.8h1.4v1.3h-4.4V21.1z"/>
	<path id="XMLID_97_" class="st1" d="M78.1,17.3h0.5V17c0-1.3-0.7-1.7-1.7-1.7c-1.3,0-2.3,0.8-2.3,0.8L73.9,15c0,0,1.2-1,3.1-1
		c2.1,0,3.2,1.1,3.2,3.1v3.6c0,0.2,0.1,0.4,0.4,0.4h0.8v1.2h-1.6c-0.7,0-1-0.4-1-0.9v-0.1c0-0.3,0.1-0.5,0.1-0.5h0
		c0,0-0.7,1.7-2.7,1.7c-1.3,0-2.7-0.8-2.7-2.5C73.3,17.5,76.7,17.3,78.1,17.3z M76.4,21.3c1.4,0,2.2-1.4,2.2-2.6v-0.3h-0.4
		c-0.7,0-3.3,0-3.3,1.6C74.9,20.6,75.4,21.3,76.4,21.3z"/>
	<path id="XMLID_100_" class="st1" d="M82.3,21.1h1.2l1.9-3l-1.8-2.7h-1.3v-1.2h2.3l1.4,2.4c0.1,0.2,0.3,0.5,0.3,0.5h0
		c0,0,0.1-0.3,0.3-0.5l1.5-2.4h2.1v1.2H89l-1.8,2.7l2,3h1.1v1.2h-2.1l-1.6-2.6c-0.2-0.2-0.3-0.5-0.3-0.5h0c0,0-0.1,0.3-0.3,0.5
		l-1.6,2.6h-2.1V21.1z"/>
</g>
</svg>
